<svg xmlns="http://www.w3.org/2000/svg" x="0px" y="0px"
width="48" height="48"
viewBox="0 0 172 172"
style=" fill:#000000;"><g transform="translate(1.978,1.978) scale(0.977,0.977)"><g fill="none" fill-rule="nonzero" stroke="none" stroke-width="none" stroke-linecap="butt" stroke-linejoin="none" stroke-miterlimit="10" stroke-dasharray="" stroke-dashoffset="0" font-family="none" font-weight="none" font-size="none" text-anchor="none" style="mix-blend-mode: normal"><g fill="#ec94fa" stroke="#000000" stroke-width="4" stroke-linejoin="round"><path d="M171.99283,114.84583c-0.28667,7.21683 -6.9015,10.18383 -8.13417,10.39167c-0.89583,0.1505 -1.376,0.17917 -1.505,-0.52317c-0.086,-0.48017 0.2365,-0.7095 1.28283,-1.3545c1.04633,-0.645 4.18533,-2.795 4.74433,-6.70083c0.559,-3.90583 -2.37217,-13.23683 -17.32183,-14.9855c-6.966,-0.80983 -12.43417,0.16483 -16.6625,1.92783c0.78833,2.03533 1.36883,4.1495 1.45483,6.28517c0.1935,4.687 -3.03867,8.1485 -6.39983,10.621c-1.96367,1.4405 -4.05633,2.40083 -5.805,2.98133c-1.3975,0.59483 -3.268,1.19683 -4.58667,0.93167c-2.91683,-0.58767 -4.472,-3.17483 -2.48683,-8.88667c1.075,-3.08883 4.16383,-7.79733 9.15183,-11.8465c-1.14667,-2.33633 -2.408,-4.72283 -3.053,-6.90867c-1.2685,-4.3215 -1.6555,-6.93017 -1.6555,-6.93017c0,0 -4.11367,8.52117 -9.417,16.26833c-0.30817,0.4515 -0.60917,0.89583 -0.91733,1.333c1.03917,2.41517 1.86333,4.97367 1.97083,7.55367c0.1935,4.67983 -1.83467,8.22017 -5.19583,10.69267c-1.82033,1.34017 -3.7625,2.27183 -5.43233,2.8595c-1.075,0.45867 -3.23933,1.2255 -6.321,1.43333c-1.69133,0.1075 -3.311,0.00717 -4.22117,-0.68083c-1.247,-0.93883 -1.3975,-2.107 -0.7525,-3.69083c0.54467,-1.34733 4.62967,-6.00567 8.05533,-10.09067c0.946,-1.12517 1.849,-2.279 2.65167,-3.34683c-0.00717,-0.02867 -0.01433,-0.043 -0.01433,-0.043c0,0 0.61633,-0.80267 1.62683,-2.20017c-1.247,-2.69467 -2.838,-5.504 -3.58333,-8.041c-1.2685,-4.3215 -1.6555,-6.93017 -1.6555,-6.93017c0,0 -4.16383,10.67833 -8.50683,19.20667c-3.36117,6.6005 -5.60433,10.5995 -6.61483,12.35533c-0.00717,0.043 -0.01433,0.07167 -0.01433,0.07167c0,0 -0.1505,0.25083 -0.4085,0.65217c-0.129,0.215 -0.1935,0.3225 -0.1935,0.3225c0,0 -0.00717,-0.00717 -0.00717,-0.02867c-1.12517,1.66267 -3.655,4.9235 -6.1705,4.9235c-6.9015,0 -4.37167,-14.01083 -4.37167,-14.01083c0,0 -2.021,5.1815 -4.29283,9.63917c-1.85617,3.6335 -3.54033,6.70083 -7.23117,6.70083c-1.06783,0 -2.74483,-0.02867 -4.14233,-1.3545c-3.16767,-3.01 -5.59717,-10.65683 -5.13133,-16.56217c0.40133,-5.03817 1.1825,-8.52117 2.24317,-11.43083c-1.892,1.032 -4.07783,2.2575 -6.30667,3.56183c-1.14667,0.67367 -2.29333,1.3545 -3.42567,2.021c0.03583,0.0645 0.07167,0.13617 0.1075,0.20067c2.838,5.47533 3.5905,17.4795 -2.58717,26.69583c-6.17767,9.21633 -17.68017,14.82783 -28.88883,11.71033c-3.612,-1.0105 -9.08017,-8.48533 -4.3645,-18.90567c4.15667,-9.18767 20.769,-17.88083 25.14783,-20.04517c0.37267,-0.20783 0.774,-0.43 1.204,-0.6665c-8.729,-7.6325 -30.52283,-17.931 -33.57583,-33.74067c-0.86,-4.4505 1.23267,-15.10733 14.31183,-27.34083c11.00083,-10.29133 26.30167,-18.17467 40.42,-23.16983c23.7575,-8.43517 48.848,-3.4615 52.71083,11.6745c3.79833,14.88517 -9.12317,32.68717 -25.671,39.087c-14.7705,5.71183 -26.98967,4.80883 -32.00633,3.1605c-5.70467,-1.8705 -9.0515,-5.633 -9.8685,-7.75433c-0.3225,-0.83133 -0.87433,-2.22883 0,-2.709c0.5375,-0.301 0.7525,-0.22933 2.18583,1.3545c1.36167,1.49783 6.837,5.53267 17.243,4.3645c27.305,-3.06017 43.7525,-24.28067 38.55667,-35.69717c-3.6335,-7.99083 -24.68917,-11.59567 -50.98367,1.505c-32.0995,15.996 -33.841,29.18267 -34.11333,34.19217c-0.7525,13.77433 17.0065,21.01983 26.60983,31.26817c0.129,0.13617 0.25083,0.27233 0.37267,0.4085c1.806,-0.99617 3.698,-2.03533 5.56133,-3.06017c4.8375,-2.65883 9.40267,-5.15283 11.53833,-6.31383c3.38267,-4.90917 10.24117,-10.32717 15.19333,-10.32717c7.91917,0 5.19583,11.3735 5.19583,11.3735c0,0 0.16483,-0.52317 0.37983,-0.53033c0.22217,-0.00717 1.0965,-1.49783 3.54033,-0.602c2.5155,0.91733 1.94217,2.68033 1.9565,2.8595c0.03583,0.344 -2.967,10.45617 -4.214,16.942c-0.602,3.096 -0.25083,5.34633 -0.07883,5.34633c0.25083,0 0.7525,-0.78833 1.21833,-1.634c0,-0.01433 -0.00717,-0.0215 -0.00717,-0.0215c0,0 0.35117,-0.63783 0.93883,-1.79167c0.07167,-0.1505 0.11467,-0.24367 0.11467,-0.24367l0.00717,0.00717c0.688,-1.3545 1.66267,-3.33967 2.78067,-5.805c2.193,-4.84467 10.58517,-23.53533 11.29467,-25.6065c0.7095,-2.07117 1.08217,-4.20683 1.43333,-5.12417c0.35117,-0.91733 3.311,-1.60533 6.77967,-1.58383c3.46867,0.0215 3.81983,1.49783 3.84133,1.806c0.0215,0.30817 -1.6555,4.4075 -2.03533,7.30283c-0.37983,2.89533 -0.01433,4.35017 0.301,6.77967c0.20783,1.591 1.204,3.612 2.37933,5.89817c3.58333,-5.86233 9.89,-17.071 10.49917,-20.21c0.41567,-2.15 1.08217,-4.20683 1.43333,-5.12417c0.35117,-0.91733 3.311,-1.60533 6.77967,-1.58383c3.46867,0.0215 3.81983,1.49783 3.84133,1.806c0.0215,0.30817 -1.6555,4.4075 -2.03533,7.30283c-0.37983,2.89533 -0.01433,4.35017 0.301,6.77967c0.27233,2.0855 1.88483,4.88767 3.483,8.06967c4.3645,-2.15 9.5675,-3.59767 15.57317,-3.62633c15.53733,-0.086 24.30933,9.96883 23.951,19.135zM37.9475,113.54867c-0.26517,0.15767 -0.516,0.30817 -0.76683,0.45867l0.00717,0.00717c0,0 -0.12183,0.0645 -0.33683,0.18633c-1.29,0.76683 -2.35067,1.40467 -3.0745,1.84183c-3.17483,1.98517 -7.955,5.203 -11.66017,8.69317c-6.07733,5.73333 -7.34583,13.68833 -4.14233,15.5445c2.967,1.72 9.88283,-0.3225 14.835,-5.72617c5.19583,-5.66883 7.34583,-12.84983 5.1385,-21.0055zM73.2505,94.13417c-0.72383,-1.2255 -3.698,-0.2365 -6.39983,2.78783c-1.68417,1.87767 -4.5365,6.72233 -5.87667,10.7715c-2.65167,8.04817 -1.505,16.22533 0.37983,16.71983c2.20017,0.5805 5.805,-10.17667 7.53217,-14.3835c1.08217,-2.63017 5.289,-14.32617 4.3645,-15.89567zM105.40733,114.90317c0,-0.13617 -0.00717,-0.27233 -0.01433,-0.41567c-1.08217,1.41183 -2.07117,2.67317 -2.924,3.73383c-1.46917,1.82033 -5.19583,5.83367 -5.19583,5.83367c0,0 -0.53033,0.50167 -0.301,0.63783c0.30817,0.18633 0.98183,-0.05733 1.71283,-0.43717c2.07117,-1.30433 6.71517,-4.55083 6.72233,-9.3525zM128.60583,109.779c0.00717,-0.91017 -0.1935,-1.87767 -0.516,-2.89533c-2.795,2.4725 -4.40033,5.0525 -5.10267,6.58617c-1.79167,3.90583 -1.88483,5.16 -1.34017,5.547c2.60867,-0.93167 6.923,-3.18917 6.95883,-9.23783z"></path></g><path d="M0,172v-172h172v172z" fill="none" stroke="none" stroke-width="1" stroke-linejoin="miter"></path><g fill="#ec94fa" stroke="none" stroke-width="1" stroke-linejoin="miter"><path d="M148.04183,95.71083c-6.00567,0.02867 -11.20867,1.47633 -15.57317,3.62633c-1.59817,-3.182 -3.21067,-5.98417 -3.483,-8.06967c-0.31533,-2.4295 -0.68083,-3.88433 -0.301,-6.77967c0.37983,-2.89533 2.05683,-6.99467 2.03533,-7.30283c-0.0215,-0.30817 -0.37267,-1.7845 -3.84133,-1.806c-3.46867,-0.0215 -6.4285,0.6665 -6.77967,1.58383c-0.35117,0.91733 -1.01767,2.97417 -1.43333,5.12417c-0.60917,3.139 -6.91583,14.34767 -10.49917,20.21c-1.17533,-2.28617 -2.1715,-4.30717 -2.37933,-5.89817c-0.31533,-2.4295 -0.68083,-3.88433 -0.301,-6.77967c0.37983,-2.89533 2.05683,-6.99467 2.03533,-7.30283c-0.0215,-0.30817 -0.37267,-1.7845 -3.84133,-1.806c-3.46867,-0.0215 -6.4285,0.6665 -6.77967,1.58383c-0.35117,0.91733 -0.72383,3.053 -1.43333,5.12417c-0.7095,2.07117 -9.10167,20.76183 -11.29467,25.6065c-1.118,2.46533 -2.09267,4.4505 -2.78067,5.805l-0.00717,-0.00717c0,0 -0.043,0.09317 -0.11467,0.24367c-0.58767,1.15383 -0.93883,1.79167 -0.93883,1.79167c0,0 0.00717,0.00717 0.00717,0.0215c-0.46583,0.84567 -0.9675,1.634 -1.21833,1.634c-0.172,0 -0.52317,-2.25033 0.07883,-5.34633c1.247,-6.48583 4.24983,-16.598 4.214,-16.942c-0.01433,-0.17917 0.559,-1.94217 -1.9565,-2.8595c-2.44383,-0.89583 -3.31817,0.59483 -3.54033,0.602c-0.215,0.00717 -0.37983,0.53033 -0.37983,0.53033c0,0 2.72333,-11.3735 -5.19583,-11.3735c-4.95217,0 -11.81067,5.418 -15.19333,10.32717c-2.13567,1.161 -6.70083,3.655 -11.53833,6.31383c-1.86333,1.02483 -3.75533,2.064 -5.56133,3.06017c-0.12183,-0.13617 -0.24367,-0.27233 -0.37267,-0.4085c-9.60333,-10.24833 -27.36233,-17.49383 -26.60983,-31.26817c0.27233,-5.0095 2.01383,-18.19617 34.11333,-34.19217c26.2945,-13.10067 47.35017,-9.49583 50.98367,-1.505c5.19583,11.4165 -11.25167,32.637 -38.55667,35.69717c-10.406,1.16817 -15.88133,-2.86667 -17.243,-4.3645c-1.43333,-1.58383 -1.64833,-1.6555 -2.18583,-1.3545c-0.87433,0.48017 -0.3225,1.87767 0,2.709c0.817,2.12133 4.16383,5.88383 9.8685,7.75433c5.01667,1.64833 17.23583,2.55133 32.00633,-3.1605c16.54783,-6.39983 29.46933,-24.20183 25.671,-39.087c-3.86283,-15.136 -28.95333,-20.10967 -52.71083,-11.6745c-14.11833,4.99517 -29.41917,12.8785 -40.42,23.16983c-13.07917,12.2335 -15.17183,22.89033 -14.31183,27.34083c3.053,15.80967 24.84683,26.10817 33.57583,33.74067c-0.43,0.2365 -0.83133,0.45867 -1.204,0.6665c-4.37883,2.16433 -20.99117,10.8575 -25.14783,20.04517c-4.71567,10.42033 0.7525,17.89517 4.3645,18.90567c11.20867,3.1175 22.71117,-2.494 28.88883,-11.71033c6.17767,-9.21633 5.42517,-21.2205 2.58717,-26.69583c-0.03583,-0.0645 -0.07167,-0.13617 -0.1075,-0.20067c1.13233,-0.6665 2.279,-1.34733 3.42567,-2.021c2.22883,-1.30433 4.41467,-2.52983 6.30667,-3.56183c-1.06067,2.90967 -1.84183,6.39267 -2.24317,11.43083c-0.46583,5.90533 1.96367,13.55217 5.13133,16.56217c1.3975,1.32583 3.0745,1.3545 4.14233,1.3545c3.69083,0 5.375,-3.06733 7.23117,-6.70083c2.27183,-4.45767 4.29283,-9.63917 4.29283,-9.63917c0,0 -2.52983,14.01083 4.37167,14.01083c2.5155,0 5.04533,-3.26083 6.1705,-4.9235c0,0.0215 0.00717,0.02867 0.00717,0.02867c0,0 0.0645,-0.1075 0.1935,-0.3225c0.258,-0.40133 0.4085,-0.65217 0.4085,-0.65217c0,0 0.00717,-0.02867 0.01433,-0.07167c1.0105,-1.75583 3.25367,-5.75483 6.61483,-12.35533c4.343,-8.52833 8.50683,-19.20667 8.50683,-19.20667c0,0 0.387,2.60867 1.6555,6.93017c0.74533,2.537 2.33633,5.34633 3.58333,8.041c-1.0105,1.3975 -1.62683,2.20017 -1.62683,2.20017c0,0 0.00717,0.01433 0.01433,0.043c-0.80267,1.06783 -1.70567,2.22167 -2.65167,3.34683c-3.42567,4.085 -7.51067,8.74333 -8.05533,10.09067c-0.645,1.58383 -0.4945,2.752 0.7525,3.69083c0.91017,0.688 2.52983,0.78833 4.22117,0.68083c3.08167,-0.20783 5.246,-0.97467 6.321,-1.43333c1.66983,-0.58767 3.612,-1.51933 5.43233,-2.8595c3.36117,-2.4725 5.38933,-6.01283 5.19583,-10.69267c-0.1075,-2.58 -0.93167,-5.1385 -1.97083,-7.55367c0.30817,-0.43717 0.60917,-0.8815 0.91733,-1.333c5.30333,-7.74717 9.417,-16.26833 9.417,-16.26833c0,0 0.387,2.60867 1.6555,6.93017c0.645,2.18583 1.90633,4.57233 3.053,6.90867c-4.988,4.04917 -8.07683,8.75767 -9.15183,11.8465c-1.98517,5.71183 -0.43,8.299 2.48683,8.88667c1.31867,0.26517 3.18917,-0.33683 4.58667,-0.93167c1.74867,-0.5805 3.84133,-1.54083 5.805,-2.98133c3.36117,-2.4725 6.59333,-5.934 6.39983,-10.621c-0.086,-2.13567 -0.6665,-4.24983 -1.45483,-6.28517c4.22833,-1.763 9.6965,-2.73767 16.6625,-1.92783c14.94967,1.74867 17.88083,11.07967 17.32183,14.9855c-0.559,3.90583 -3.698,6.05583 -4.74433,6.70083c-1.04633,0.645 -1.36883,0.87433 -1.28283,1.3545c0.129,0.70233 0.60917,0.67367 1.505,0.52317c1.23267,-0.20783 7.8475,-3.17483 8.13417,-10.39167c0.35833,-9.16617 -8.41367,-19.221 -23.951,-19.135zM32.809,134.55417c-4.95217,5.40367 -11.868,7.44617 -14.835,5.72617c-3.2035,-1.85617 -1.935,-9.81117 4.14233,-15.5445c3.70517,-3.49017 8.48533,-6.708 11.66017,-8.69317c0.72383,-0.43717 1.7845,-1.075 3.0745,-1.84183c0.215,-0.12183 0.33683,-0.18633 0.33683,-0.18633l-0.00717,-0.00717c0.25083,-0.1505 0.50167,-0.301 0.76683,-0.45867c2.20733,8.15567 0.05733,15.33667 -5.1385,21.0055zM68.886,110.02983c-1.72717,4.20683 -5.332,14.964 -7.53217,14.3835c-1.88483,-0.4945 -3.0315,-8.67167 -0.37983,-16.71983c1.34017,-4.04917 4.1925,-8.89383 5.87667,-10.7715c2.70183,-3.02433 5.676,-4.01333 6.39983,-2.78783c0.9245,1.5695 -3.28233,13.2655 -4.3645,15.89567zM98.685,124.25567c-0.731,0.37983 -1.40467,0.6235 -1.71283,0.43717c-0.22933,-0.13617 0.301,-0.63783 0.301,-0.63783c0,0 3.72667,-4.01333 5.19583,-5.83367c0.85283,-1.06067 1.84183,-2.322 2.924,-3.73383c0.00717,0.14333 0.01433,0.2795 0.01433,0.41567c-0.00717,4.80167 -4.65117,8.04817 -6.72233,9.3525zM121.647,119.01683c-0.54467,-0.387 -0.4515,-1.64117 1.34017,-5.547c0.70233,-1.53367 2.30767,-4.11367 5.10267,-6.58617c0.3225,1.01767 0.52317,1.98517 0.516,2.89533c-0.03583,6.04867 -4.35017,8.30617 -6.95883,9.23783z"></path></g><path d="" fill="none" stroke="none" stroke-width="1" stroke-linejoin="miter"></path></g></g></svg>