<svg xmlns="http://www.w3.org/2000/svg" xmlns:xlink="http://www.w3.org/1999/xlink" width="53" height="165.879" viewBox="0 0 53 165.879">
  <defs>
    <filter id="Path_49" x="0" y="138.879" width="53" height="27" filterUnits="userSpaceOnUse">
      <feOffset dx="3" dy="-3" input="SourceAlpha"/>
      <feGaussianBlur stdDeviation="2.5" result="blur"/>
      <feFlood flood-opacity="0.161"/>
      <feComposite operator="in" in2="blur"/>
      <feComposite in="SourceGraphic"/>
    </filter>
    <filter id="Path_32" x="13.674" y="89.762" width="16.152" height="29.548" filterUnits="userSpaceOnUse">
      <feOffset dx="-1" dy="1" input="SourceAlpha"/>
      <feGaussianBlur stdDeviation="1" result="blur-2"/>
      <feFlood flood-opacity="0.161"/>
      <feComposite operator="in" in2="blur-2"/>
      <feComposite in="SourceGraphic"/>
    </filter>
    <filter id="Path_36" x="15.811" y="114.88" width="13.38" height="30.474" filterUnits="userSpaceOnUse">
      <feOffset input="SourceAlpha"/>
      <feGaussianBlur stdDeviation="1" result="blur-3"/>
      <feFlood flood-opacity="0.161"/>
      <feComposite operator="in" in2="blur-3"/>
      <feComposite in="SourceGraphic"/>
    </filter>
    <filter id="Path_34" x="8.041" y="139.866" width="21.541" height="20.041" filterUnits="userSpaceOnUse">
      <feOffset dy="1" input="SourceAlpha"/>
      <feGaussianBlur stdDeviation="1.5" result="blur-4"/>
      <feFlood flood-opacity="0.161"/>
      <feComposite operator="in" in2="blur-4"/>
      <feComposite in="SourceGraphic"/>
    </filter>
    <filter id="Path_37" x="18.616" y="131.273" width="22.185" height="27.737" filterUnits="userSpaceOnUse">
      <feOffset dy="1" input="SourceAlpha"/>
      <feGaussianBlur stdDeviation="3" result="blur-5"/>
      <feFlood flood-opacity="0.161"/>
      <feComposite operator="in" in2="blur-5"/>
      <feComposite in="SourceGraphic"/>
    </filter>
  </defs>
  <g id="mannequin_" data-name="mannequin " transform="translate(-465.5 -181.307)">
    <g id="stand" transform="translate(-4 34.686)">
      <g transform="matrix(1, 0, 0, 1, 469.5, 146.62)" filter="url(#Path_49)">
        <path id="Path_49-2" data-name="Path 49" d="M19,0C29.493,0,38,2.686,38,6s-8.507,6-19,6S0,9,0,6,8.507,0,19,0Z" transform="translate(4.5 149.38)" fill="#efcaac"/>
      </g>
      <path id="Path_48" data-name="Path 48" d="M2464,297v5.383h38.063V297Z" transform="translate(-1990)" fill="#efcaac"/>
      <ellipse id="Ellipse_3" data-name="Ellipse 3" cx="19" cy="6" rx="19" ry="6" transform="translate(474 291)" fill="#efcaac"/>
    </g>
    <path id="Path_38" data-name="Path 38" d="M2.36,17.282c2.19,0,2.382-1.368,2.382-6.415S4.811,0,2.621,0,0,5.651,0,10.7.17,17.282,2.36,17.282Z" transform="matrix(1, -0.017, 0.017, 1, 497.145, 206.031)" fill="#f7d8c0"/>
    <path id="Path_40" data-name="Path 40" d="M1.138,14.6s2.937.014,2.937-4.622S4.149,0,1.767,0,.153,4.917.153,9.552,1.138,14.6,1.138,14.6Z" transform="translate(492.58 191.728) rotate(-23)" fill="#f7d8c0"/>
    <path id="Path_41" data-name="Path 41" d="M1.495.007c1.97,0,2.183-.385,2.183,4.648s-.134,10.783-2.1,10.783S.069,10.129.069,5.1-.475.007,1.495.007Z" transform="translate(475.85 202.245) rotate(-132)" fill="#f7d8c0"/>
    <path id="Path_42" data-name="Path 42" d="M1.48,0C3.239,0,3.255,2.3,3.255,2.3s.055,5.416-1.7,5.416S.019,2.532.019,2.532-.28,0,1.48,0Z" transform="matrix(-0.961, -0.276, 0.276, -0.961, 488.465, 189.799)" fill="#f7d8c0"/>
    <path id="Path_43" data-name="Path 43" d="M1.467,7.878c1.744,0,1.76-2.345,1.76-2.345S3.281,0,1.537,0,.019,5.291.019,5.291-.277,7.878,1.467,7.878Z" transform="translate(489.929 182.463) rotate(-21)" fill="#f7d8c0"/>
    <path id="Path_39" data-name="Path 39" d="M2.361,0c2.19,0,2.382,1.368,2.382,6.415s.069,10.867-2.121,10.867S0,11.631,0,6.584.17,0,2.361,0Z" transform="translate(474.443 219.233) rotate(-176)" fill="#f7d8c0"/>
    <path id="Path_35" data-name="Path 35" d="M5.2,0C9.459,0,9.213,4.991,9.213,11.342S9.459,23,5.2,23,0,17.906,0,11.555.949,0,5.2,0Z" transform="matrix(0.995, -0.105, 0.105, 0.995, 474.128, 275.184)" fill="#f7d8c0"/>
    <g transform="matrix(1, 0, 0, 1, 465.5, 181.31)" filter="url(#Path_32)">
      <path id="Path_32-2" data-name="Path 32" d="M4.884,0c4.255,0,4.782,4.989,4.33,11.578S9.459,23.236,5.2,23.236,0,18.143,0,11.791.629,0,4.884,0Z" transform="translate(18.49 91.76) rotate(2)" fill="#f7d8c0"/>
    </g>
    <path id="Path_33" data-name="Path 33" d="M3.871,0C7.036,0,6.853,5.121,6.853,11.638S7.036,23.6,3.871,23.6,0,18.374,0,11.857.706,0,3.871,0Z" transform="matrix(0.848, -0.53, 0.53, 0.848, 477.731, 301.493)" fill="#f7d8c0"/>
    <g transform="matrix(1, 0, 0, 1, 465.5, 181.31)" filter="url(#Path_36)">
      <path id="Path_36-2" data-name="Path 36" d="M4.167,0C7.574,0,7.378,5.311,7.378,12.069s.2,12.4-3.211,12.4S0,19.054,0,12.3.76,0,4.167,0Z" transform="translate(18.81 117.88)" fill="#f7d8c0"/>
    </g>
    <g transform="matrix(1, 0, 0, 1, 465.5, 181.31)" filter="url(#Path_34)">
      <path id="Path_34-2" data-name="Path 34" d="M2.147.045C4.463.045,4.608-.7,4.608,3.862s.134,8.368-2.183,8.368S0,4.184,0,4.184-.169.045,2.147.045Z" transform="translate(22.31 143.37) rotate(53)" fill="#f7d8c0"/>
    </g>
    <g transform="matrix(1, 0, 0, 1, 465.5, 181.31)" filter="url(#Path_37)">
      <path id="Path_37-2" data-name="Path 37" d="M1.644.035C3.418.035,3.529-.543,3.529,3s.1,6.51-1.671,6.51S0,3.255,0,3.255-.13.035,1.644.035Z" transform="translate(28.28 139.27) rotate(4)" fill="#f7d8c0"/>
    </g>
    <path id="Path_30" data-name="Path 30" d="M12.573,2.369c7.149,0,11.7,5.052,11.7,14.979s-4.556,17.974-11.7,17.974S4.225,19.286,4.225,11.047,5.424,2.369,12.573,2.369Z" transform="translate(473.088 219.764) rotate(8)" fill="#f7d8c0"/>
    <path id="Path_44" data-name="Path 44" d="M13.064,2.369c7.57,0,12.394,3.04,12.394,9.014S20.634,22.2,13.064,22.2s-8.84-9.65-8.84-14.608S5.494,2.369,13.064,2.369Z" transform="translate(471.918 219.599) rotate(8)" fill="#f7d8c0"/>
    <path id="Path_31" data-name="Path 31" d="M8.575.128C12.624.128,16.2-1.452,16.2,6.5s-3.574,6.746-7.623,6.746S-.1,11.942,0,6.5,4.526.128,8.575.128Z" transform="matrix(0.978, -0.208, 0.208, 0.978, 473.85, 260.171)" fill="#f7d8c0"/>
    <path id="Path_46" data-name="Path 46" d="M3.069.294c1.782,0,3.386,1.014,3.386,2.645s-1.6,2.52-3.386,2.52S.54,4.395.54,2.764,1.287.294,3.069.294Z" transform="translate(494.942 226.106) rotate(-13)" fill="#f7d8c0"/>
    <path id="Path_47" data-name="Path 47" d="M2.641.357A1.917,1.917,0,0,1,4.12,3.244c-.733.979-.965,1.82-2.06,1.649A2.442,2.442,0,0,1-.264,2.56C-.264,1.082,1.2.357,2.641.357Z" transform="translate(470.993 220.645)" fill="#f7d8c0"/>
    <path id="Path_29" data-name="Path 29" d="M8.49,0c4.418,0,5.841,4.646,5.841,10.377S12.843,19.169,8.49,20.755.916,16.109.916,10.377,4.072,0,8.49,0Z" transform="translate(478.061 199.479)" fill="#f7d8c0"/>
  </g>
</svg>
