<svg xmlns="http://www.w3.org/2000/svg" x="0px" y="0px"
width="48" height="48"
viewBox="0 0 172 172"
style=" fill:#000000;"><g transform=""><g fill="none" fill-rule="nonzero" stroke="none" stroke-width="1" stroke-linecap="butt" stroke-linejoin="miter" stroke-miterlimit="10" stroke-dasharray="" stroke-dashoffset="0" font-family="none" font-weight="none" font-size="none" text-anchor="none" style="mix-blend-mode: normal"><path d="M0,172v-172h172v172z" fill="none"></path><path d="" fill="none"></path><path d="" fill="none"></path><path d="" fill="none"></path><path d="" fill="none"></path><path d="" fill="none"></path><g><path d="M28.66667,150.5c-3.94167,0 -7.16667,-3.225 -7.16667,-7.16667v-28.66667c0,-3.94167 3.225,-7.16667 7.16667,-7.16667h28.66667c3.94167,0 7.16667,3.225 7.16667,7.16667v28.66667c0,3.94167 -3.225,7.16667 -7.16667,7.16667z" fill="#ffa726"></path><path d="M57.33333,111.08333c2.15,0 3.58333,1.43333 3.58333,3.58333v28.66667c0,2.15 -1.43333,3.58333 -3.58333,3.58333h-28.66667c-2.15,0 -3.58333,-1.43333 -3.58333,-3.58333v-28.66667c0,-2.15 1.43333,-3.58333 3.58333,-3.58333h28.66667M57.33333,103.91667h-28.66667c-6.09167,0 -10.75,4.65833 -10.75,10.75v28.66667c0,6.09167 4.65833,10.75 10.75,10.75h28.66667c6.09167,0 10.75,-4.65833 10.75,-10.75v-28.66667c0,-6.09167 -4.65833,-10.75 -10.75,-10.75z" fill="#616161"></path><path d="M71.66667,150.5c-3.94167,0 -7.16667,-3.225 -7.16667,-7.16667v-28.66667c0,-3.94167 3.225,-7.16667 7.16667,-7.16667h28.66667c3.94167,0 7.16667,3.225 7.16667,7.16667v28.66667c0,3.94167 -3.225,7.16667 -7.16667,7.16667z" fill="#ffffff"></path><path d="M100.33333,111.08333c2.15,0 3.58333,1.43333 3.58333,3.58333v28.66667c0,2.15 -1.43333,3.58333 -3.58333,3.58333h-28.66667c-2.15,0 -3.58333,-1.43333 -3.58333,-3.58333v-28.66667c0,-2.15 1.43333,-3.58333 3.58333,-3.58333h28.66667M100.33333,103.91667h-28.66667c-6.09167,0 -10.75,4.65833 -10.75,10.75v28.66667c0,6.09167 4.65833,10.75 10.75,10.75h28.66667c6.09167,0 10.75,-4.65833 10.75,-10.75v-28.66667c0,-6.09167 -4.65833,-10.75 -10.75,-10.75z" fill="#616161"></path><path d="M114.66667,150.5c-3.94167,0 -7.16667,-3.225 -7.16667,-7.16667v-28.66667c0,-3.94167 3.225,-7.16667 7.16667,-7.16667h28.66667c3.94167,0 7.16667,3.225 7.16667,7.16667v28.66667c0,3.94167 -3.225,7.16667 -7.16667,7.16667z" fill="#82b1ff"></path><path d="M143.33333,111.08333c2.15,0 3.58333,1.43333 3.58333,3.58333v28.66667c0,2.15 -1.43333,3.58333 -3.58333,3.58333h-28.66667c-2.15,0 -3.58333,-1.43333 -3.58333,-3.58333v-28.66667c0,-2.15 1.43333,-3.58333 3.58333,-3.58333h28.66667M143.33333,103.91667h-28.66667c-6.09167,0 -10.75,4.65833 -10.75,10.75v28.66667c0,6.09167 4.65833,10.75 10.75,10.75h28.66667c6.09167,0 10.75,-4.65833 10.75,-10.75v-28.66667c0,-6.09167 -4.65833,-10.75 -10.75,-10.75z" fill="#616161"></path><path d="M28.66667,107.5c-3.94167,0 -7.16667,-3.225 -7.16667,-7.16667v-28.66667c0,-3.94167 3.225,-7.16667 7.16667,-7.16667h28.66667c3.94167,0 7.16667,3.225 7.16667,7.16667v28.66667c0,3.94167 -3.225,7.16667 -7.16667,7.16667z" fill="#8bc34a"></path><path d="M57.33333,68.08333c2.15,0 3.58333,1.43333 3.58333,3.58333v28.66667c0,2.15 -1.43333,3.58333 -3.58333,3.58333h-28.66667c-2.15,0 -3.58333,-1.43333 -3.58333,-3.58333v-28.66667c0,-2.15 1.43333,-3.58333 3.58333,-3.58333h28.66667M57.33333,60.91667h-28.66667c-6.09167,0 -10.75,4.65833 -10.75,10.75v28.66667c0,6.09167 4.65833,10.75 10.75,10.75h28.66667c6.09167,0 10.75,-4.65833 10.75,-10.75v-28.66667c0,-6.09167 -4.65833,-10.75 -10.75,-10.75z" fill="#616161"></path><path d="M71.66667,107.5c-3.94167,0 -7.16667,-3.225 -7.16667,-7.16667v-28.66667c0,-3.94167 3.225,-7.16667 7.16667,-7.16667h28.66667c3.94167,0 7.16667,3.225 7.16667,7.16667v28.66667c0,3.94167 -3.225,7.16667 -7.16667,7.16667z" fill="#ffee58"></path><path d="M100.33333,68.08333c2.15,0 3.58333,1.43333 3.58333,3.58333v28.66667c0,2.15 -1.43333,3.58333 -3.58333,3.58333h-28.66667c-2.15,0 -3.58333,-1.43333 -3.58333,-3.58333v-28.66667c0,-2.15 1.43333,-3.58333 3.58333,-3.58333h28.66667M100.33333,60.91667h-28.66667c-6.09167,0 -10.75,4.65833 -10.75,10.75v28.66667c0,6.09167 4.65833,10.75 10.75,10.75h28.66667c6.09167,0 10.75,-4.65833 10.75,-10.75v-28.66667c0,-6.09167 -4.65833,-10.75 -10.75,-10.75z" fill="#616161"></path><g><path d="M114.66667,107.5c-3.94167,0 -7.16667,-3.225 -7.16667,-7.16667v-28.66667c0,-3.94167 3.225,-7.16667 7.16667,-7.16667h28.66667c3.94167,0 7.16667,3.225 7.16667,7.16667v28.66667c0,3.94167 -3.225,7.16667 -7.16667,7.16667z" fill="#f4511e"></path><path d="M143.33333,68.08333c2.15,0 3.58333,1.43333 3.58333,3.58333v28.66667c0,2.15 -1.43333,3.58333 -3.58333,3.58333h-28.66667c-2.15,0 -3.58333,-1.43333 -3.58333,-3.58333v-28.66667c0,-2.15 1.43333,-3.58333 3.58333,-3.58333h28.66667M143.33333,60.91667h-28.66667c-6.09167,0 -10.75,4.65833 -10.75,10.75v28.66667c0,6.09167 4.65833,10.75 10.75,10.75h28.66667c6.09167,0 10.75,-4.65833 10.75,-10.75v-28.66667c0,-6.09167 -4.65833,-10.75 -10.75,-10.75z" fill="#616161"></path></g><g><path d="M28.66667,64.5c-3.94167,0 -7.16667,-3.225 -7.16667,-7.16667v-28.66667c0,-3.94167 3.225,-7.16667 7.16667,-7.16667h28.66667c3.94167,0 7.16667,3.225 7.16667,7.16667v28.66667c0,3.94167 -3.225,7.16667 -7.16667,7.16667z" fill="#f4511e"></path><path d="M57.33333,25.08333c2.15,0 3.58333,1.43333 3.58333,3.58333v28.66667c0,2.15 -1.43333,3.58333 -3.58333,3.58333h-28.66667c-2.15,0 -3.58333,-1.43333 -3.58333,-3.58333v-28.66667c0,-2.15 1.43333,-3.58333 3.58333,-3.58333h28.66667M57.33333,17.91667h-28.66667c-6.09167,0 -10.75,4.65833 -10.75,10.75v28.66667c0,6.09167 4.65833,10.75 10.75,10.75h28.66667c6.09167,0 10.75,-4.65833 10.75,-10.75v-28.66667c0,-6.09167 -4.65833,-10.75 -10.75,-10.75z" fill="#616161"></path></g><g><path d="M71.66667,64.5c-3.94167,0 -7.16667,-3.225 -7.16667,-7.16667v-28.66667c0,-3.94167 3.225,-7.16667 7.16667,-7.16667h28.66667c3.94167,0 7.16667,3.225 7.16667,7.16667v28.66667c0,3.94167 -3.225,7.16667 -7.16667,7.16667z" fill="#82b1ff"></path><path d="M100.33333,25.08333c2.15,0 3.58333,1.43333 3.58333,3.58333v28.66667c0,2.15 -1.43333,3.58333 -3.58333,3.58333h-28.66667c-2.15,0 -3.58333,-1.43333 -3.58333,-3.58333v-28.66667c0,-2.15 1.43333,-3.58333 3.58333,-3.58333h28.66667M100.33333,17.91667h-28.66667c-6.09167,0 -10.75,4.65833 -10.75,10.75v28.66667c0,6.09167 4.65833,10.75 10.75,10.75h28.66667c6.09167,0 10.75,-4.65833 10.75,-10.75v-28.66667c0,-6.09167 -4.65833,-10.75 -10.75,-10.75z" fill="#616161"></path></g><g><path d="M114.66667,64.5c-3.94167,0 -7.16667,-3.225 -7.16667,-7.16667v-28.66667c0,-3.94167 3.225,-7.16667 7.16667,-7.16667h28.66667c3.94167,0 7.16667,3.225 7.16667,7.16667v28.66667c0,3.94167 -3.225,7.16667 -7.16667,7.16667z" fill="#ffffff"></path><path d="M143.33333,25.08333c2.15,0 3.58333,1.43333 3.58333,3.58333v28.66667c0,2.15 -1.43333,3.58333 -3.58333,3.58333h-28.66667c-2.15,0 -3.58333,-1.43333 -3.58333,-3.58333v-28.66667c0,-2.15 1.43333,-3.58333 3.58333,-3.58333h28.66667M143.33333,17.91667h-28.66667c-6.09167,0 -10.75,4.65833 -10.75,10.75v28.66667c0,6.09167 4.65833,10.75 10.75,10.75h28.66667c6.09167,0 10.75,-4.65833 10.75,-10.75v-28.66667c0,-6.09167 -4.65833,-10.75 -10.75,-10.75z" fill="#616161"></path></g></g><path d="" fill="none"></path><path d="" fill="none"></path><path d="" fill="none"></path><path d="" fill="none"></path><path d="" fill="none"></path></g></g></svg>